<svg xmlns="http://www.w3.org/2000/svg" viewBox="0 0 48 48">
  <rect width="48" height="48" rx="10" fill="#0d1f5c"/>
  <g transform="translate(24,24)" stroke="#60a5fa" stroke-linecap="round" fill="none">
    <line x1="0" y1="-15" x2="0" y2="15" stroke-width="2.5"/>
    <line x1="0" y1="-15" x2="0" y2="15" stroke-width="2.5" transform="rotate(60)"/>
    <line x1="0" y1="-15" x2="0" y2="15" stroke-width="2.5" transform="rotate(120)"/>
    <g stroke-width="1.5">
      <line x1="0" y1="-9" x2="-4" y2="-13"/>
      <line x1="0" y1="-9" x2="4" y2="-13"/>
      <line x1="0" y1="9"  x2="-4" y2="13"/>
      <line x1="0" y1="9"  x2="4"  y2="13"/>
    </g>
    <g stroke-width="1.5" transform="rotate(60)">
      <line x1="0" y1="-9" x2="-4" y2="-13"/>
      <line x1="0" y1="-9" x2="4" y2="-13"/>
      <line x1="0" y1="9"  x2="-4" y2="13"/>
      <line x1="0" y1="9"  x2="4"  y2="13"/>
    </g>
    <g stroke-width="1.5" transform="rotate(120)">
      <line x1="0" y1="-9" x2="-4" y2="-13"/>
      <line x1="0" y1="-9" x2="4" y2="-13"/>
      <line x1="0" y1="9"  x2="-4" y2="13"/>
      <line x1="0" y1="9"  x2="4"  y2="13"/>
    </g>
    <circle r="2.5" fill="#60a5fa" stroke="none"/>
  </g>
</svg>
